<?xml version="1.0" encoding="UTF-8" standalone="no"?>
<!-- Created with Inkscape (http://www.inkscape.org/) -->

<svg
   xmlns:dc="http://purl.org/dc/elements/1.1/"
   xmlns:cc="http://creativecommons.org/ns#"
   xmlns:rdf="http://www.w3.org/1999/02/22-rdf-syntax-ns#"
   xmlns:svg="http://www.w3.org/2000/svg"
   xmlns="http://www.w3.org/2000/svg"
   xmlns:sodipodi="http://sodipodi.sourceforge.net/DTD/sodipodi-0.dtd"
   xmlns:inkscape="http://www.inkscape.org/namespaces/inkscape"
   width="182.94687mm"
   height="44.679558mm"
   viewBox="0 0 182.94687 44.679558"
   version="1.1"
   id="svg547"
   inkscape:version="0.92.4 (f8dce91, 2019-08-02)"
   sodipodi:docname="factcheckerbrlogo.svg">
  <defs
     id="defs541" />
  <sodipodi:namedview
     id="base"
     pagecolor="#ffffff"
     bordercolor="#666666"
     borderopacity="1.0"
     inkscape:pageopacity="0.0"
     inkscape:pageshadow="2"
     inkscape:zoom="1.08"
     inkscape:cx="293.87106"
     inkscape:cy="25.147974"
     inkscape:document-units="mm"
     inkscape:current-layer="g3965"
     showgrid="false"
     fit-margin-top="0"
     fit-margin-left="0"
     fit-margin-right="0"
     fit-margin-bottom="0"
     inkscape:window-width="1299"
     inkscape:window-height="713"
     inkscape:window-x="67"
     inkscape:window-y="27"
     inkscape:window-maximized="1" />
  <metadata
     id="metadata544">
    <rdf:RDF>
      <cc:Work
         rdf:about="">
        <dc:format>image/svg+xml</dc:format>
        <dc:type
           rdf:resource="http://purl.org/dc/dcmitype/StillImage" />
        <dc:title></dc:title>
      </cc:Work>
    </rdf:RDF>
  </metadata>
  <g
     inkscape:label="Layer 1"
     inkscape:groupmode="layer"
     id="layer1"
     transform="translate(-14.359899,-82.543294)">
    <g
       id="g3965"
       transform="translate(0,-3.1750001)">
      <g
         aria-label="FACT"
         transform="matrix(1.1550904,0,0,0.90802763,-14.604592,-198.22161)"
         style="font-style:normal;font-variant:normal;font-weight:normal;font-stretch:normal;font-size:40px;line-height:0;font-family:'Brotherhood Script';-inkscape-font-specification:'Brotherhood Script';letter-spacing:0px;word-spacing:0px;fill:#000000;fill-opacity:1;stroke:none"
         id="flowRoot47">
        <path
           d="m 59.610905,314.68796 h -8.076719 v 5.49875 h 7.624203 v 1.60437 h -7.624203 v 7.87103 h -1.864913 v -16.57853 h 9.941632 z"
           style="font-style:normal;font-variant:normal;font-weight:normal;font-stretch:normal;font-size:28.083395px;font-family:Meera;-inkscape-font-specification:Meera;fill:#333333"
           id="path3819"
           inkscape:connector-curvature="0" />
        <path
           d="m 73.296075,329.66211 h -2.152877 l -1.384972,-4.73085 h -5.142224 l -1.467247,4.73085 h -2.152878 l 5.128511,-16.59224 h 2.290003 z m -4.004078,-6.33522 -2.015751,-7.9533 -2.194015,7.9533 z"
           style="font-style:normal;font-variant:normal;font-weight:normal;font-stretch:normal;font-size:28.083395px;font-family:Meera;-inkscape-font-specification:Meera;fill:#333333"
           id="path3821"
           inkscape:connector-curvature="0" />
        <path
           d="m 81.235668,328.30456 q 2.920783,0 3.853239,-3.20874 l 1.714075,0.52107 q -1.069583,3.11276 -3.674976,4.01779 -0.863893,0.30168 -2.139165,0.30168 -1.275271,0 -2.454554,-0.63078 -1.165571,-0.64449 -1.960901,-1.78264 -1.618087,-2.33114 -1.618087,-6.18438 0,-3.9218 1.618087,-6.23923 1.672936,-2.3997 4.634857,-2.3997 2.96192,0 4.634857,2.42713 0.534791,0.7679 0.891319,1.7415 l -1.700362,0.53479 q -0.932457,-3.05791 -3.825814,-3.05791 -2.194016,0 -3.318448,1.91976 -1.069583,1.79635 -1.069583,5.07366 0,5.01881 2.440842,6.47235 0.836468,0.49365 1.974614,0.49365 z"
           style="font-style:normal;font-variant:normal;font-weight:normal;font-stretch:normal;font-size:28.083395px;font-family:Meera;-inkscape-font-specification:Meera;fill:#333333"
           id="path3823"
           inkscape:connector-curvature="0" />
        <path
           d="m 99.473422,314.86622 h -4.429169 v 14.79589 h -1.837487 v -14.79589 h -4.429169 v -1.7415 h 10.695825 z"
           style="font-style:normal;font-variant:normal;font-weight:normal;font-stretch:normal;font-size:28.083395px;font-family:Meera;-inkscape-font-specification:Meera;fill:#333333"
           id="path3825"
           inkscape:connector-curvature="0" />
      </g>
      <g
         aria-label="HE "
         transform="matrix(1.3484538,0,0,1.2813177,-20.316828,-296.03614)"
         style="font-style:normal;font-variant:normal;font-weight:normal;font-stretch:normal;font-size:40px;line-height:0;font-family:'Brotherhood Script';-inkscape-font-specification:'Brotherhood Script';letter-spacing:0px;word-spacing:0px;fill:#333333;fill-opacity:1;stroke:none"
         id="flowRoot47-0">
        <path
           d="m 62.646263,320.90209 h -8.695605 v 7.43958 h 1.739121 q 0.869561,0 0.869561,0.64411 0,0.67633 -0.869561,0.67633 h -4.508832 q -0.901766,0 -0.901766,-0.67633 0,-0.64411 0.901766,-0.64411 h 1.449268 v -15.49106 h -0.805149 q -0.869561,0 -0.869561,-0.67633 0,-0.64412 0.869561,-0.64412 h 3.864713 q 0.869561,0 0.869561,0.64412 0,0.67633 -0.869561,0.67633 h -1.739121 v 6.73104 h 8.695605 v -6.73104 h -1.739121 q -0.86956,0 -0.86956,-0.67633 0,-0.64412 0.86956,-0.64412 h 3.864713 q 0.869561,0 0.869561,0.64412 0,0.67633 -0.869561,0.67633 h -0.805148 v 15.49106 h 1.481473 q 0.869561,0 0.869561,0.64411 0,0.67633 -0.869561,0.67633 h -4.541038 q -0.86956,0 -0.86956,-0.67633 0,-0.64411 0.86956,-0.64411 h 1.739121 z"
           style="font-style:normal;font-variant:normal;font-weight:normal;font-stretch:normal;font-size:32.20594406px;font-family:FreeMono;-inkscape-font-specification:FreeMono;letter-spacing:-2.36512423px;fill:#333333"
           id="path3828"
           inkscape:connector-curvature="0" />
        <path
           d="m 70.832108,320.90209 v 7.43958 h 10.112667 v -3.83251 q 0,-0.86956 0.676324,-0.86956 0.644119,0 0.644119,0.86956 v 5.15295 H 67.772544 q -0.869561,0 -0.869561,-0.67633 0,-0.64411 0.869561,-0.64411 h 1.739121 v -15.49106 h -1.739121 q -0.869561,0 -0.869561,-0.67633 0,-0.64412 0.869561,-0.64412 h 13.81635 v 4.47663 q 0,0.86956 -0.676325,0.86956 -0.644119,0 -0.644119,-0.86956 v -3.15618 h -9.436342 v 6.73104 h 4.669862 v -1.44927 q 0,-0.86956 0.676325,-0.86956 0.644119,0 0.644119,0.86956 v 4.21898 q 0,0.86956 -0.644119,0.86956 -0.676325,0 -0.676325,-0.86956 v -1.44927 z"
           style="font-style:normal;font-variant:normal;font-weight:normal;font-stretch:normal;font-size:32.20594406px;font-family:FreeMono;-inkscape-font-specification:FreeMono;letter-spacing:-2.36512423px;fill:#333333"
           id="path3830"
           inkscape:connector-curvature="0" />
      </g>
      <path
         inkscape:connector-curvature="0"
         id="path55-43-6"
         d="m 126.57258,113.76689 a 16.38273,16.630953 0 0 1 -16.38273,16.63096 16.38273,16.630953 0 0 1 -16.382727,-16.63096 16.38273,16.630953 0 0 1 16.382727,-16.63095 16.38273,16.630953 0 0 1 16.38273,16.63095 z"
         style="fill:#333333;stroke-width:0.17375621" />
      <g
         transform="translate(-34.798447,-114.97061)"
         id="text89-4-9"
         style="font-style:normal;font-variant:normal;font-weight:normal;font-stretch:normal;font-size:8.32863235px;line-height:0;font-family:'Allessa Personal Use';-inkscape-font-specification:'Allessa Personal Use';letter-spacing:0px;word-spacing:0px;fill:#000000;fill-opacity:1;stroke:none;stroke-width:0.2082158"
         aria-label="C">
        <path
           inkscape:connector-curvature="0"
           id="path3834"
           style="font-style:italic;font-variant:normal;font-weight:bold;font-stretch:normal;font-size:27.76210976px;font-family:sans-serif;-inkscape-font-specification:'sans-serif Bold Italic';fill:#ffffff;stroke-width:0.2082158"
           d="m 150.54074,238.04965 q -1.87069,0.66423 -3.59227,1.00312 -1.72157,0.3389 -3.26692,0.3389 -4.08027,0 -6.5203,-2.2367 -2.44003,-2.23669 -2.44003,-5.92385 0,-2.42647 0.77267,-4.56827 0.77268,-2.15536 2.27736,-3.93116 1.7758,-2.08758 4.27005,-3.21271 2.50781,-1.12512 5.39518,-1.12512 1.57246,0 3.15848,0.37956 1.58602,0.366 3.22626,1.12512 l -0.84045,4.18872 q -1.30135,-0.98957 -2.61625,-1.45046 -1.31491,-0.4609 -2.81959,-0.4609 -3.13137,0 -5.24607,2.41292 -2.11469,2.41292 -2.11469,6.0323 0,2.33158 1.30135,3.66004 1.30135,1.32846 3.59227,1.32846 1.36912,0 2.90092,-0.488 1.54535,-0.50157 3.45671,-1.55891 z" />
      </g>
      <path
         inkscape:connector-curvature="0"
         id="path55-43-6-3"
         d="M 47.12536,113.7669 A 16.382729,16.630954 0 0 1 30.742629,130.39785 16.382729,16.630954 0 0 1 14.359899,113.7669 16.382729,16.630954 0 0 1 30.742629,97.135944 16.382729,16.630954 0 0 1 47.12536,113.7669 Z"
         style="fill:#333333;stroke-width:0.17375621" />
      <g
         transform="matrix(0.65671644,0,0,0.65671644,-51.171018,39.11036)"
         id="text89-4-9-6"
         style="font-style:normal;font-variant:normal;font-weight:normal;font-stretch:normal;font-size:12.68223572px;line-height:0;font-family:'Allessa Personal Use';-inkscape-font-specification:'Allessa Personal Use';letter-spacing:0px;word-spacing:0px;fill:#000000;fill-opacity:1;stroke:none;stroke-width:0.31705588"
         aria-label="C">
        <path
           inkscape:connector-curvature="0"
           id="path3838"
           style="font-style:italic;font-variant:normal;font-weight:bold;font-stretch:normal;font-size:42.27412033px;font-family:sans-serif;-inkscape-font-specification:'sans-serif Bold Italic';fill:#ffffff;stroke-width:0.31705588"
           d="m 133.187,127.86139 q -2.84855,1.01144 -5.47004,1.52748 -2.62149,0.51604 -4.97464,0.51604 -6.21314,0 -9.92864,-3.40587 -3.7155,-3.40587 -3.7155,-9.02041 0,-3.69485 1.17658,-6.95624 1.17657,-3.28202 3.4678,-5.98608 2.70406,-3.17881 6.50212,-4.892071 3.81871,-1.713258 8.21538,-1.713258 2.39443,0 4.80951,0.577967 2.41507,0.557325 4.91271,1.713262 l -1.27978,6.37827 q -1.9816,-1.50684 -3.98384,-2.20866 -2.00224,-0.70182 -4.29346,-0.70182 -4.76823,0 -7.98833,3.67422 -3.2201,3.67422 -3.2201,9.18554 0,3.55036 1.9816,5.57325 1.9816,2.02288 5.47004,2.02288 2.08481,0 4.41732,-0.7431 2.35315,-0.76374 5.26362,-2.37379 z" />
      </g>
      <g
         aria-label="KER"
         transform="matrix(1.3484538,0,0,1.2813177,60.528667,-294.66162)"
         style="font-style:normal;font-variant:normal;font-weight:normal;font-stretch:normal;font-size:40px;line-height:0;font-family:'Brotherhood Script';-inkscape-font-specification:'Brotherhood Script';letter-spacing:0px;word-spacing:0px;fill:#333333;fill-opacity:1;stroke:none"
         id="flowRoot47-0-9">
        <path
           d="m 53.886246,322.5446 v 5.79707 h 2.415446 q 0.869561,0 0.869561,0.64411 0,0.67633 -0.869561,0.67633 h -5.47501 q -0.869561,0 -0.869561,-0.67633 0,-0.64411 0.869561,-0.64411 h 1.739121 v -15.49106 h -1.739121 q -0.869561,0 -0.869561,-0.67633 0,-0.64412 0.869561,-0.64412 h 5.47501 q 0.869561,0 0.869561,0.64412 0,0.67633 -0.869561,0.67633 h -2.415446 v 8.01928 l 9.017665,-8.01928 h -1.449268 q -0.901766,0 -0.901766,-0.67633 0,-0.64412 0.901766,-0.64412 h 3.800302 q 0.901766,0 0.901766,0.64412 0,0.67633 -0.901766,0.67633 H 64.73965 l -7.14972,6.37677 q 2.351034,0.96618 3.639272,2.73751 1.288237,1.73912 3.09177,6.37678 h 1.803533 q 0.869561,0 0.869561,0.64411 0,0.67633 -0.869561,0.67633 h -2.801917 q -1.771327,-4.8953 -3.156183,-6.79545 -1.384855,-1.93236 -3.671477,-2.6731 z"
           style="font-style:normal;font-variant:normal;font-weight:normal;font-stretch:normal;font-size:32.20594406px;font-family:FreeMono;-inkscape-font-specification:FreeMono;letter-spacing:-2.36512423px;fill:#333333"
           id="path3841"
           inkscape:connector-curvature="0" />
        <path
           d="m 70.832108,320.90209 v 7.43958 h 10.112667 v -3.83251 q 0,-0.86956 0.676324,-0.86956 0.644119,0 0.644119,0.86956 v 5.15295 H 67.772544 q -0.869561,0 -0.869561,-0.67633 0,-0.64411 0.869561,-0.64411 h 1.739121 v -15.49106 h -1.739121 q -0.869561,0 -0.869561,-0.67633 0,-0.64412 0.869561,-0.64412 h 13.81635 v 4.47663 q 0,0.86956 -0.676325,0.86956 -0.644119,0 -0.644119,-0.86956 v -3.15618 h -9.436342 v 6.73104 h 4.669862 v -1.44927 q 0,-0.86956 0.676325,-0.86956 0.644119,0 0.644119,0.86956 v 4.21898 q 0,0.86956 -0.644119,0.86956 -0.676325,0 -0.676325,-0.86956 v -1.44927 z"
           style="font-style:normal;font-variant:normal;font-weight:normal;font-stretch:normal;font-size:32.20594406px;font-family:FreeMono;-inkscape-font-specification:FreeMono;letter-spacing:-2.36512423px;fill:#333333"
           id="path3843"
           inkscape:connector-curvature="0" />
        <path
           d="m 87.77797,321.57842 v 6.76325 h 2.415446 q 0.86956,0 0.86956,0.64411 0,0.67633 -0.86956,0.67633 h -5.475011 q -0.86956,0 -0.86956,-0.67633 0,-0.64411 0.86956,-0.64411 h 1.739121 v -15.49106 h -1.739121 q -0.86956,0 -0.86956,-0.67633 0,-0.64412 0.86956,-0.64412 h 7.987074 q 2.351034,0 4.057949,1.51368 1.739121,1.48148 1.739121,3.51045 0,3.12398 -4.476626,4.66986 1.51368,1.03059 2.54427,2.35104 1.03059,1.32044 2.995153,4.76648 h 0.998384 q 0.86956,0 0.86956,0.64411 0,0.67633 -0.86956,0.67633 h -1.835739 q -2.125592,-3.92913 -3.510448,-5.57163 -1.35265,-1.67471 -3.188388,-2.51206 z m 0,-1.32045 h 3.671478 q 2.38324,0 4.057949,-1.095 1.674709,-1.095 1.674709,-2.64089 0,-1.44926 -1.384856,-2.54427 -1.35265,-1.1272 -3.091771,-1.1272 H 87.77797 Z"
           style="font-style:normal;font-variant:normal;font-weight:normal;font-stretch:normal;font-size:32.20594406px;font-family:FreeMono;-inkscape-font-specification:FreeMono;letter-spacing:-2.36512423px;fill:#333333"
           id="path3845"
           inkscape:connector-curvature="0" />
      </g>
    </g>
  </g>
</svg>
